<svg id="svg" version="1.1" xmlns="http://www.w3.org/2000/svg" xmlns:xlink="http://www.w3.org/1999/xlink" width="400" height="400" viewBox="0, 0, 400,400"><g id="svgg"><path id="path0" d="M160.136 119.693 C 156.547 122.800,139.964 138.445,139.661 139.010 C 138.229 141.686,139.957 143.450,144.220 143.667 L 147.500 143.833 147.584 203.054 L 147.669 262.276 148.693 263.138 L 149.718 264.000 162.840 264.000 L 175.963 264.000 176.898 263.196 L 177.833 262.391 178.000 238.946 L 178.167 215.500 200.000 215.500 L 221.833 215.500 221.833 235.833 L 221.833 256.167 218.553 256.333 C 215.022 256.513,214.288 256.905,213.793 258.875 C 213.376 260.537,214.058 261.334,223.249 269.912 C 237.931 283.614,236.899 282.974,239.919 280.250 C 245.925 274.834,260.070 261.492,260.339 260.990 C 261.771 258.314,260.043 256.550,255.780 256.333 L 252.500 256.167 252.416 196.946 L 252.331 137.724 251.307 136.862 L 250.282 136.000 237.160 136.000 L 224.037 136.000 223.102 136.804 L 222.167 137.609 222.000 161.054 L 221.833 184.500 200.000 184.500 L 178.167 184.500 178.167 164.167 L 178.167 143.833 181.447 143.667 C 185.460 143.463,186.881 142.227,186.203 139.527 C 186.037 138.864,176.843 130.048,165.598 119.768 C 163.480 117.832,162.305 117.816,160.136 119.693 " stroke="none" fill="#fbfbfb" fill-rule="evenodd"></path><path id="path1" d="M195.667 55.131 C 189.488 56.941,159.999 71.391,141.667 81.592 C 120.937 93.127,90.902 112.569,77.732 122.980 C 72.297 127.276,71.316 132.418,68.980 168.833 C 67.596 190.414,68.368 229.198,70.676 254.000 C 72.582 274.489,71.878 273.267,88.667 285.208 C 117.273 305.554,152.359 325.655,185.167 340.493 C 200.414 347.389,199.763 347.427,219.167 338.499 C 253.091 322.888,289.565 301.410,318.502 280.003 C 328.130 272.881,328.473 271.557,331.028 231.667 C 332.403 210.191,331.629 171.534,329.324 146.629 C 327.505 126.964,327.379 126.667,317.950 119.769 C 284.987 95.654,248.949 74.801,211.061 57.922 L 204.167 54.850 200.667 54.771 C 198.515 54.722,196.589 54.861,195.667 55.131 M164.054 118.432 C 165.755 119.202,185.937 138.298,186.340 139.520 C 187.245 142.261,185.112 144.000,180.844 144.000 L 178.333 144.000 178.333 164.167 L 178.333 184.333 200.000 184.333 L 221.667 184.333 221.667 161.241 C 221.667 135.623,221.537 137.105,223.866 136.131 C 225.491 135.453,248.842 135.453,250.467 136.131 C 252.866 137.134,252.667 131.616,252.667 197.074 L 252.667 256.000 255.200 256.000 C 258.292 256.000,259.734 256.600,260.496 258.205 C 261.510 260.342,261.217 260.700,249.676 271.434 C 238.943 281.417,237.976 282.174,236.448 281.791 C 235.294 281.501,214.280 261.942,213.746 260.660 C 212.640 258.006,214.564 256.211,218.688 256.050 L 221.667 255.934 221.667 235.800 L 221.667 215.667 200.000 215.667 L 178.333 215.667 178.328 238.583 C 178.323 263.640,178.397 262.712,176.329 263.749 C 174.755 264.539,151.386 264.643,149.533 263.869 C 147.134 262.866,147.333 268.384,147.333 202.926 L 147.333 144.000 144.750 143.999 C 141.485 143.999,140.045 143.352,139.382 141.589 C 138.602 139.514,139.039 138.990,150.228 128.581 C 159.705 119.766,161.778 118.030,162.833 118.030 C 163.017 118.030,163.566 118.211,164.054 118.432 " stroke="none" fill="#26b859" fill-rule="evenodd"></path><path id="path2" d="M189.083 184.583 C 195.088 184.634,204.912 184.634,210.917 184.583 C 216.921 184.532,212.008 184.491,200.000 184.491 C 187.992 184.491,183.079 184.532,189.083 184.583 M189.083 215.583 C 195.088 215.634,204.912 215.634,210.917 215.583 C 216.921 215.532,212.008 215.491,200.000 215.491 C 187.992 215.491,183.079 215.532,189.083 215.583 " stroke="none" fill="#94dcac" fill-rule="evenodd"></path><path id="path3" d="M156.315 122.917 L 155.167 124.167 156.417 123.018 C 157.104 122.386,157.667 121.824,157.667 121.768 C 157.667 121.513,157.385 121.753,156.315 122.917 M169.333 123.167 C 169.955 123.808,170.539 124.333,170.631 124.333 C 170.722 124.333,170.289 123.808,169.667 123.167 C 169.045 122.525,168.461 122.000,168.369 122.000 C 168.278 122.000,168.711 122.525,169.333 123.167 M151.479 127.417 L 150.500 128.500 151.583 127.521 C 152.593 126.608,152.820 126.333,152.562 126.333 C 152.505 126.333,152.017 126.821,151.479 127.417 M173.333 126.771 C 173.333 126.828,173.821 127.316,174.417 127.854 L 175.500 128.833 174.521 127.750 C 173.608 126.740,173.333 126.513,173.333 126.771 M146.812 131.750 L 145.833 132.833 146.917 131.854 C 147.926 130.942,148.153 130.667,147.896 130.667 C 147.838 130.667,147.351 131.154,146.812 131.750 M179.000 132.167 C 179.622 132.808,180.206 133.333,180.297 133.333 C 180.389 133.333,179.955 132.808,179.333 132.167 C 178.711 131.525,178.128 131.000,178.036 131.000 C 177.944 131.000,178.378 131.525,179.000 132.167 M141.982 136.250 L 140.833 137.500 142.083 136.351 C 142.771 135.719,143.333 135.157,143.333 135.101 C 143.333 134.847,143.051 135.087,141.982 136.250 M183.667 136.500 C 184.289 137.142,184.872 137.667,184.964 137.667 C 185.056 137.667,184.622 137.142,184.000 136.500 C 183.378 135.858,182.794 135.333,182.703 135.333 C 182.611 135.333,183.045 135.858,183.667 136.500 M230.939 135.916 C 234.480 135.970,240.180 135.970,243.605 135.916 C 247.031 135.862,244.133 135.818,237.167 135.818 C 230.200 135.818,227.397 135.862,230.939 135.916 M143.250 143.911 C 144.029 143.981,145.304 143.981,146.083 143.911 C 146.862 143.841,146.225 143.783,144.667 143.783 C 143.108 143.783,142.471 143.841,143.250 143.911 M179.583 143.911 C 180.362 143.981,181.637 143.981,182.417 143.911 C 183.196 143.841,182.558 143.783,181.000 143.783 C 179.442 143.783,178.804 143.841,179.583 143.911 M217.583 256.244 C 218.362 256.314,219.637 256.314,220.417 256.244 C 221.196 256.174,220.558 256.116,219.000 256.116 C 217.442 256.116,216.804 256.174,217.583 256.244 M253.917 256.244 C 254.696 256.314,255.971 256.314,256.750 256.244 C 257.529 256.174,256.892 256.116,255.333 256.116 C 253.775 256.116,253.137 256.174,253.917 256.244 M156.605 264.250 C 160.147 264.304,165.847 264.304,169.272 264.249 C 172.697 264.195,169.800 264.151,162.833 264.151 C 155.867 264.151,153.064 264.196,156.605 264.250 " stroke="none" fill="#71cf90" fill-rule="evenodd"></path><path id="path4" d="M221.824 161.500 C 221.824 174.150,221.866 179.277,221.917 172.892 C 221.967 166.508,221.967 156.158,221.916 149.892 C 221.866 143.627,221.824 148.850,221.824 161.500 M252.496 197.333 C 252.496 229.692,252.535 242.929,252.583 226.750 C 252.631 210.571,252.631 184.096,252.583 167.917 C 252.535 151.737,252.496 164.975,252.496 197.333 M147.496 202.667 C 147.496 235.025,147.535 248.262,147.583 232.083 C 147.631 215.904,147.631 189.429,147.583 173.250 C 147.535 157.071,147.496 170.308,147.496 202.667 M178.157 164.167 C 178.157 175.350,178.199 179.877,178.250 174.226 C 178.301 168.575,178.301 159.425,178.250 153.893 C 178.198 148.360,178.157 152.983,178.157 164.167 M178.158 238.500 C 178.158 251.150,178.199 256.277,178.250 249.892 C 178.301 243.508,178.301 233.158,178.250 226.892 C 178.199 220.627,178.158 225.850,178.158 238.500 M221.823 235.833 C 221.823 247.017,221.865 251.543,221.917 245.893 C 221.968 240.242,221.968 231.092,221.916 225.559 C 221.865 220.027,221.823 224.650,221.823 235.833 " stroke="none" fill="#ace4bc" fill-rule="evenodd"></path></g></svg>